HIERARCHY
ROOT Hip
{
	OFFSET	0.0000	0.0000	0.0000
	CHANNELS 6 Xposition Yposition Zposition Xrotation Yrotation Zrotation
	JOINT LowerSpine
	{
		OFFSET	0.0000	9.5494	-5.1676
		CHANNELS 3 Xrotation Yrotation Zrotation
		JOINT MiddleSpine
		{
			OFFSET	0.0000	8.7146	0.4552
			CHANNELS 3 Xrotation Yrotation Zrotation
			JOINT Chest
			{
				OFFSET	0.0000	10.7833	-2.4002
				CHANNELS 3 Xrotation Yrotation Zrotation
				JOINT Neck
				{
					OFFSET	0.0000	24.2996	-0.5053
					CHANNELS 3 Xrotation Yrotation Zrotation
					JOINT Head
					{
						OFFSET	0.0000	13.7223	3.7325
						CHANNELS 3 Xrotation Yrotation Zrotation
						End Site
						{
							OFFSET	0.0001	19.1736	0.5724
						}
					}
				}
				JOINT LClavicle
				{
					OFFSET	2.4533	23.4504	8.0342
					CHANNELS 3 Xrotation Yrotation Zrotation
					JOINT LShoulder
					{
						OFFSET	14.3322	3.3636	-5.4426
						CHANNELS 3 Xrotation Yrotation Zrotation
						JOINT LForearm
						{
							OFFSET	30.4446	-0.1081	-0.2638
							CHANNELS 3 Xrotation Yrotation Zrotation
							JOINT LHand
							{
								OFFSET	25.3972	0.0737	-0.1521
								CHANNELS 3 Xrotation Yrotation Zrotation
								JOINT LFinger1
								{
									OFFSET	9.8432	0.8608	2.7339
									CHANNELS 3 Xrotation Yrotation Zrotation
									JOINT LFinger11
									{
										OFFSET	3.6819	-0.8978	0.6488
										CHANNELS 3 Xrotation Yrotation Zrotation
										JOINT LFinger12
										{
											OFFSET	2.5135	-0.6132	0.4431
											CHANNELS 3 Xrotation Yrotation Zrotation
											End Site
											{
												OFFSET	1.7886	-0.5339	0.2901
											}
										}
									}
								}
								JOINT LFinger2
								{
									OFFSET	9.9901	0.9941	0.2380
									CHANNELS 3 Xrotation Yrotation Zrotation
									JOINT LFinger21
									{
										OFFSET	4.5524	0.0127	-0.0269
										CHANNELS 3 Xrotation Yrotation Zrotation
										JOINT LFinger22
										{
											OFFSET	2.5233	0.0077	-0.0154
											CHANNELS 3 Xrotation Yrotation Zrotation
											End Site
											{
												OFFSET	2.2665	-0.1600	0.0030
											}
										}
									}
								}
								JOINT LFinger3
								{
									OFFSET	9.4677	0.6633	-2.2398
									CHANNELS 3 Xrotation Yrotation Zrotation
									JOINT LFinger31
									{
										OFFSET	4.1308	-0.2092	-0.2586
										CHANNELS 3 Xrotation Yrotation Zrotation
										JOINT LFinger32
										{
											OFFSET	2.3539	-0.1184	-0.1479
											CHANNELS 3 Xrotation Yrotation Zrotation
											End Site
											{
												OFFSET	2.0813	-0.2559	-0.0984
											}
										}
									}
								}
								JOINT LFinger4
								{
									OFFSET	8.7856	-0.6677	-3.8683
									CHANNELS 3 Xrotation Yrotation Zrotation
									JOINT LFinger41
									{
										OFFSET	2.5409	-0.5299	-0.7014
										CHANNELS 3 Xrotation Yrotation Zrotation
										JOINT LFinger42
										{
											OFFSET	1.8632	-0.3881	-0.5146
											CHANNELS 3 Xrotation Yrotation Zrotation
											End Site
											{
												OFFSET	1.6537	-0.4544	-0.3794
											}
										}
									}
								}
								JOINT LFinger0
								{
									OFFSET	2.0361	-1.5412	1.5436
									CHANNELS 3 Xrotation Yrotation Zrotation
									JOINT LFinger01
									{
										OFFSET	3.7911	-1.2452	2.8583
										CHANNELS 3 Xrotation Yrotation Zrotation
										JOINT LFinger02
										{
											OFFSET	2.4964	-0.8932	1.7986
											CHANNELS 3 Xrotation Yrotation Zrotation
											End Site
											{
												OFFSET	1.8357	-0.6319	1.2570
											}
										}
									}
								}
							}
						}
					}
				}
				JOINT RClavicle
				{
					OFFSET	-2.4533	23.4504	8.0342
					CHANNELS 3 Xrotation Yrotation Zrotation
					JOINT RShoulder
					{
						OFFSET	-14.3348	3.3642	-5.4436
						CHANNELS 3 Xrotation Yrotation Zrotation
						JOINT RForearm
						{
							OFFSET	-30.4446	-0.1081	-0.2638
							CHANNELS 3 Xrotation Yrotation Zrotation
							JOINT RHand
							{
								OFFSET	-25.3972	0.0737	-0.1521
								CHANNELS 3 Xrotation Yrotation Zrotation
								JOINT RFinger1
								{
									OFFSET	-9.8432	0.8608	2.7339
									CHANNELS 3 Xrotation Yrotation Zrotation
									JOINT RFinger11
									{
										OFFSET	-3.6819	-0.8978	0.6488
										CHANNELS 3 Xrotation Yrotation Zrotation
										JOINT RFinger12
										{
											OFFSET	-2.5135	-0.6132	0.4431
											CHANNELS 3 Xrotation Yrotation Zrotation
											End Site
											{
												OFFSET	-1.7886	-0.5339	0.2901
											}
										}
									}
								}
								JOINT RFinger2
								{
									OFFSET	-9.9901	0.9941	0.2380
									CHANNELS 3 Xrotation Yrotation Zrotation
									JOINT RFinger21
									{
										OFFSET	-4.5524	0.0127	-0.0269
										CHANNELS 3 Xrotation Yrotation Zrotation
										JOINT RFinger22
										{
											OFFSET	-2.5233	0.0077	-0.0154
											CHANNELS 3 Xrotation Yrotation Zrotation
											End Site
											{
												OFFSET	-2.2665	-0.1600	0.0030
											}
										}
									}
								}
								JOINT RFinger3
								{
									OFFSET	-9.4677	0.6633	-2.2398
									CHANNELS 3 Xrotation Yrotation Zrotation
									JOINT RFinger31
									{
										OFFSET	-4.1308	-0.2091	-0.2586
										CHANNELS 3 Xrotation Yrotation Zrotation
										JOINT RFinger32
										{
											OFFSET	-2.3539	-0.1184	-0.1479
											CHANNELS 3 Xrotation Yrotation Zrotation
											End Site
											{
												OFFSET	-2.0813	-0.2559	-0.0984
											}
										}
									}
								}
								JOINT RFinger4
								{
									OFFSET	-8.7856	-0.6677	-3.8683
									CHANNELS 3 Xrotation Yrotation Zrotation
									JOINT RFinger41
									{
										OFFSET	-2.5409	-0.5299	-0.7014
										CHANNELS 3 Xrotation Yrotation Zrotation
										JOINT RFinger42
										{
											OFFSET	-1.8632	-0.3881	-0.5146
											CHANNELS 3 Xrotation Yrotation Zrotation
											End Site
											{
												OFFSET	-1.6537	-0.4544	-0.3794
											}
										}
									}
								}
								JOINT RFinger0
								{
									OFFSET	-2.0361	-1.5412	1.5436
									CHANNELS 3 Xrotation Yrotation Zrotation
									JOINT RFinger01
									{
										OFFSET	-3.7911	-1.2452	2.8583
										CHANNELS 3 Xrotation Yrotation Zrotation
										JOINT RFinger02
										{
											OFFSET	-2.4964	-0.8932	1.7986
											CHANNELS 3 Xrotation Yrotation Zrotation
											End Site
											{
												OFFSET	-1.8357	-0.6319	1.2570
											}
										}
									}
								}
							}
						}
					}
				}
			}
		}
	}
	JOINT RThigh
	{
		OFFSET	-10.2155	4.3166	-0.8421
		CHANNELS 3 Xrotation Yrotation Zrotation
		JOINT RShin
		{
			OFFSET	-0.8174	-44.4328	0.0000
			CHANNELS 3 Xrotation Yrotation Zrotation
			JOINT RFoot
			{
				OFFSET	0.0000	-43.6302	0.0000
				CHANNELS 3 Xrotation Yrotation Zrotation
				JOINT RToe
				{
					OFFSET	0.0000	-4.7954	10.0277
					CHANNELS 3 Xrotation Yrotation Zrotation
					End Site
					{
						OFFSET	0.0000	0.0000	6.7272
					}
				}
			}
		}
	}
	JOINT LThigh
	{
		OFFSET	10.2154	4.3169	-0.8421
		CHANNELS 3 Xrotation Yrotation Zrotation
		JOINT LShin
		{
			OFFSET	0.8175	-44.4331	0.0000
			CHANNELS 3 Xrotation Yrotation Zrotation
			JOINT LFoot
			{
				OFFSET	0.0000	-43.6302	0.0000
				CHANNELS 3 Xrotation Yrotation Zrotation
				JOINT LToe
				{
					OFFSET	0.0000	-4.7954	10.0278
					CHANNELS 3 Xrotation Yrotation Zrotation
					End Site
					{
						OFFSET	0.0000	0.0000	6.7272
					}
				}
			}
		}
	}
}
MOTION
Frames:	6
Frame Time: 0.0333333000
	3.5643	89.8836	91.6290	-10.043100	-34.628990	-5.102308	0.000000	0.000000	0.000000	1.701628	0.148422	-0.695785	5.677500	0.415139	-2.334159	0.000000	0.000000	0.000000	0.000000	0.000000	0.000000	0.000000	0.000000	-12.664000	55.646510	-48.454440	-20.569540	42.611320	-58.400330	-0.917384	0.000000	0.000000	0.000000	0.000000	0.000000	0.000000	0.000000	0.000000	0.000000	0.000000	0.000000	0.000000	0.000000	0.000000	0.000000	0.000000	0.000000	0.000000	0.000000	0.000000	0.000000	0.000000	0.000000	0.000000	0.000000	0.000000	0.000000	0.000000	0.000000	0.000000	0.000000	0.000000	0.000000	0.000000	0.000000	0.000000	0.000000	0.000000	0.000000	0.000000	0.000000	0.000000	0.000000	0.000000	0.000000	0.000000	0.000000	0.000000	0.000000	0.000000	13.232540	28.721350	32.904230	44.432540	19.183920	36.435620	0.232175	0.000000	0.000000	0.000000	0.000000	0.000000	0.000000	0.000000	0.000000	0.000000	0.000000	0.000000	0.000000	0.000000	0.000000	0.000000	0.000000	0.000000	0.000000	0.000000	0.000000	0.000000	0.000000	0.000000	0.000000	0.000000	0.000000	0.000000	0.000000	0.000000	0.000000	0.000000	0.000000	0.000000	0.000000	0.000000	0.000000	0.000000	0.000000	0.000000	0.000000	0.000000	0.000000	0.000000	0.000000	0.000000	0.000000	0.000000	0.000000	16.244760	-0.619531	-4.400108	1.901522	-0.016635	-1.670845	-20.784410	-11.553180	-8.269588	0.000000	0.000000	0.000000	13.169220	0.393238	2.102192	11.633960	0.122495	-0.016363	-18.556030	4.439320	3.087205	0.000000	0.000000	0.000000
	4.3340	89.8238	92.1300	-9.715761	-33.726990	-4.030024	0.000000	0.000000	0.000000	1.962299	0.324004	-0.799819	6.555077	0.971995	-2.704736	0.000000	0.000000	0.000000	0.000000	0.000000	0.000000	0.000000	0.000000	-13.109230	51.157470	-48.957310	-24.481400	39.005050	-50.074340	-1.228807	0.000000	0.000000	0.000000	0.000000	0.000000	0.000000	0.000000	0.000000	0.000000	0.000000	0.000000	0.000000	0.000000	0.000000	0.000000	0.000000	0.000000	0.000000	0.000000	0.000000	0.000000	0.000000	0.000000	0.000000	0.000000	0.000000	0.000000	0.000000	0.000000	0.000000	0.000000	0.000000	0.000000	0.000000	0.000000	0.000000	0.000000	0.000000	0.000000	0.000000	0.000000	0.000000	0.000000	0.000000	0.000000	0.000000	0.000000	0.000000	0.000000	0.000000	13.050880	28.191710	30.846900	44.829270	18.172450	34.861610	0.164174	0.000000	0.000000	0.000000	0.000000	0.000000	0.000000	0.000000	0.000000	0.000000	0.000000	0.000000	0.000000	0.000000	0.000000	0.000000	0.000000	0.000000	0.000000	0.000000	0.000000	0.000000	0.000000	0.000000	0.000000	0.000000	0.000000	0.000000	0.000000	0.000000	0.000000	0.000000	0.000000	0.000000	0.000000	0.000000	0.000000	0.000000	0.000000	0.000000	0.000000	0.000000	0.000000	0.000000	0.000000	0.000000	0.000000	0.000000	0.000000	16.765980	-1.019991	-7.025268	2.161486	0.043018	2.005175	-19.185290	-9.610736	-6.680779	0.000000	0.000000	0.000000	13.761810	2.507628	1.420229	6.204770	2.192165	-0.242904	-18.918110	4.121605	2.900224	0.000000	0.000000	0.000000
	4.5141	89.8946	92.2490	-10.007580	-32.087570	-3.418038	0.000000	0.000000	0.000000	2.028246	0.148950	-0.640151	6.766603	0.407738	-2.151076	0.000000	0.000000	0.000000	0.000000	0.000000	0.000000	0.000000	0.000000	-13.192170	36.866550	-43.445800	-35.195810	27.932670	-37.380100	-1.183412	0.000000	0.000000	0.000000	0.000000	0.000000	0.000000	0.000000	0.000000	0.000000	0.000000	0.000000	0.000000	0.000000	0.000000	0.000000	0.000000	0.000000	0.000000	0.000000	0.000000	0.000000	0.000000	0.000000	0.000000	0.000000	0.000000	0.000000	0.000000	0.000000	0.000000	0.000000	0.000000	0.000000	0.000000	0.000000	0.000000	0.000000	0.000000	0.000000	0.000000	0.000000	0.000000	0.000000	0.000000	0.000000	0.000000	0.000000	0.000000	0.000000	0.000000	13.200910	25.668990	27.137390	47.894840	14.269720	33.735440	0.175897	0.000000	0.000000	0.000000	0.000000	0.000000	0.000000	0.000000	0.000000	0.000000	0.000000	0.000000	0.000000	0.000000	0.000000	0.000000	0.000000	0.000000	0.000000	0.000000	0.000000	0.000000	0.000000	0.000000	0.000000	0.000000	0.000000	0.000000	0.000000	0.000000	0.000000	0.000000	0.000000	0.000000	0.000000	0.000000	0.000000	0.000000	0.000000	0.000000	0.000000	0.000000	0.000000	0.000000	0.000000	0.000000	0.000000	0.000000	0.000000	18.145910	-1.240483	-7.703301	0.970653	0.022404	2.735217	-18.496800	-11.866030	-8.146735	0.000000	0.000000	0.000000	13.227100	1.171648	0.851841	8.614716	0.978606	-0.121944	-19.193910	3.173831	2.235306	0.000000	0.000000	0.000000
	4.6214	89.8532	92.2243	-9.954516	-30.695140	-3.340820	0.000000	0.000000	0.000000	2.036364	-0.112578	-0.560822	6.783806	-0.452134	-1.851585	0.000000	0.000000	0.000000	0.000000	0.000000	0.000000	0.000000	0.000000	-13.217630	29.448150	-38.131970	-40.793050	21.282760	-31.816740	-0.238657	0.000000	0.000000	0.000000	0.000000	0.000000	0.000000	0.000000	0.000000	0.000000	0.000000	0.000000	0.000000	0.000000	0.000000	0.000000	0.000000	0.000000	0.000000	0.000000	0.000000	0.000000	0.000000	0.000000	0.000000	0.000000	0.000000	0.000000	0.000000	0.000000	0.000000	0.000000	0.000000	0.000000	0.000000	0.000000	0.000000	0.000000	0.000000	0.000000	0.000000	0.000000	0.000000	0.000000	0.000000	0.000000	0.000000	0.000000	0.000000	0.000000	0.000000	13.258770	25.133580	26.439030	48.568010	13.451880	33.214140	0.158904	0.000000	0.000000	0.000000	0.000000	0.000000	0.000000	0.000000	0.000000	0.000000	0.000000	0.000000	0.000000	0.000000	0.000000	0.000000	0.000000	0.000000	0.000000	0.000000	0.000000	0.000000	0.000000	0.000000	0.000000	0.000000	0.000000	0.000000	0.000000	0.000000	0.000000	0.000000	0.000000	0.000000	0.000000	0.000000	0.000000	0.000000	0.000000	0.000000	0.000000	0.000000	0.000000	0.000000	0.000000	0.000000	0.000000	0.000000	0.000000	18.843430	-1.274971	-7.553851	0.118072	0.001286	3.164253	-18.115500	-13.739210	-9.387270	0.000000	0.000000	0.000000	12.485420	0.797593	1.031550	10.418180	0.634661	-0.096311	-19.702190	3.032974	2.153053	0.000000	0.000000	0.000000
	4.8220	89.7679	92.2195	-9.735812	-30.120040	-3.402116	0.000000	0.000000	0.000000	2.006923	-0.315885	-0.549943	6.678019	-1.126282	-1.788205	0.000000	0.000000	0.000000	0.000000	0.000000	0.000000	0.000000	0.000000	-13.238910	27.272620	-35.537780	-42.811440	18.733790	-31.003740	-0.159041	0.000000	0.000000	0.000000	0.000000	0.000000	0.000000	0.000000	0.000000	0.000000	0.000000	0.000000	0.000000	0.000000	0.000000	0.000000	0.000000	0.000000	0.000000	0.000000	0.000000	0.000000	0.000000	0.000000	0.000000	0.000000	0.000000	0.000000	0.000000	0.000000	0.000000	0.000000	0.000000	0.000000	0.000000	0.000000	0.000000	0.000000	0.000000	0.000000	0.000000	0.000000	0.000000	0.000000	0.000000	0.000000	0.000000	0.000000	0.000000	0.000000	0.000000	13.194690	25.732210	27.564330	47.608440	14.554220	33.059260	0.154900	0.000000	0.000000	0.000000	0.000000	0.000000	0.000000	0.000000	0.000000	0.000000	0.000000	0.000000	0.000000	0.000000	0.000000	0.000000	0.000000	0.000000	0.000000	0.000000	0.000000	0.000000	0.000000	0.000000	0.000000	0.000000	0.000000	0.000000	0.000000	0.000000	0.000000	0.000000	0.000000	0.000000	0.000000	0.000000	0.000000	0.000000	0.000000	0.000000	0.000000	0.000000	0.000000	0.000000	0.000000	0.000000	0.000000	0.000000	0.000000	18.662850	-1.231748	-7.355883	0.066125	0.001977	3.300627	-17.982810	-15.329170	-10.473950	0.000000	0.000000	0.000000	11.978530	1.130524	1.185393	11.166500	0.973529	-0.173195	-19.937270	3.616494	2.583303	0.000000	0.000000	0.000000
	5.0481	89.7356	92.2774	-9.643821	-30.326530	-3.415820	0.000000	0.000000	0.000000	2.004910	-0.371884	-0.540767	6.669715	-1.311434	-1.749861	0.000000	0.000000	0.000000	0.000000	0.000000	0.000000	0.000000	0.000000	-13.310240	26.965200	-35.079790	-43.463280	18.302870	-30.805300	-0.168043	0.000000	0.000000	0.000000	0.000000	0.000000	0.000000	0.000000	0.000000	0.000000	0.000000	0.000000	0.000000	0.000000	0.000000	0.000000	0.000000	0.000000	0.000000	0.000000	0.000000	0.000000	0.000000	0.000000	0.000000	0.000000	0.000000	0.000000	0.000000	0.000000	0.000000	0.000000	0.000000	0.000000	0.000000	0.000000	0.000000	0.000000	0.000000	0.000000	0.000000	0.000000	0.000000	0.000000	0.000000	0.000000	0.000000	0.000000	0.000000	0.000000	0.000000	13.089840	26.354110	28.549110	46.429020	15.624180	32.932010	0.161303	0.000000	0.000000	0.000000	0.000000	0.000000	0.000000	0.000000	0.000000	0.000000	0.000000	0.000000	0.000000	0.000000	0.000000	0.000000	0.000000	0.000000	0.000000	0.000000	0.000000	0.000000	0.000000	0.000000	0.000000	0.000000	0.000000	0.000000	0.000000	0.000000	0.000000	0.000000	0.000000	0.000000	0.000000	0.000000	0.000000	0.000000	0.000000	0.000000	0.000000	0.000000	0.000000	0.000000	0.000000	0.000000	0.000000	0.000000	0.000000	17.984320	-1.196768	-7.390878	0.822887	0.021881	3.056953	-17.671820	-16.349660	-11.117650	0.000000	0.000000	0.000000	12.001320	1.352854	0.946078	10.982010	1.213545	-0.213999	-19.655950	4.593513	3.263859	0.000000	0.000000	0.000000
